<svg width="30" height="30" viewBox="0 0 30 30" fill="none" xmlns="http://www.w3.org/2000/svg">
<g id="carbon:microphone">
<path id="Vector" d="M21.5625 13.125V15.9375C21.5625 17.678 20.8711 19.3472 19.6404 20.5779C18.4097 21.8086 16.7405 22.5 15 22.5C13.2595 22.5 11.5903 21.8086 10.3596 20.5779C9.1289 19.3472 8.4375 17.678 8.4375 15.9375V13.125H6.5625V15.9375C6.56348 18.0122 7.32886 20.0139 8.71239 21.56C10.0959 23.1061 12.0006 24.0882 14.0625 24.3188V26.25H10.3125V28.125H19.6875V26.25H15.9375V24.3188C17.9994 24.0882 19.9041 23.1061 21.2876 21.56C22.6711 20.0139 23.4365 18.0122 23.4375 15.9375V13.125H21.5625Z" fill="black"/>
<path id="Vector_2" d="M15 20.625C16.2432 20.625 17.4355 20.1311 18.3146 19.2521C19.1936 18.373 19.6875 17.1807 19.6875 15.9375V6.5625C19.6875 5.3193 19.1936 4.12701 18.3146 3.24794C17.4355 2.36886 16.2432 1.875 15 1.875C13.7568 1.875 12.5645 2.36886 11.6854 3.24794C10.8064 4.12701 10.3125 5.3193 10.3125 6.5625V15.9375C10.3125 17.1807 10.8064 18.373 11.6854 19.2521C12.5645 20.1311 13.7568 20.625 15 20.625ZM12.1875 6.5625C12.1875 5.81658 12.4838 5.10121 13.0113 4.57376C13.5387 4.04632 14.2541 3.75 15 3.75C15.7459 3.75 16.4613 4.04632 16.9887 4.57376C17.5162 5.10121 17.8125 5.81658 17.8125 6.5625V15.9375C17.8125 16.6834 17.5162 17.3988 16.9887 17.9262C16.4613 18.4537 15.7459 18.75 15 18.75C14.2541 18.75 13.5387 18.4537 13.0113 17.9262C12.4838 17.3988 12.1875 16.6834 12.1875 15.9375V6.5625Z" fill="black"/>
</g>
</svg>
