<svg width="39" height="40" viewBox="0 0 39 40" fill="none" xmlns="http://www.w3.org/2000/svg">
<g id="fa-regular:smile" clip-path="url(#clip0_343_56)">
<path id="Vector" d="M19.38 0.625C8.67688 0.625 0.00500488 9.29688 0.00500488 20C0.00500488 30.7031 8.67688 39.375 19.38 39.375C30.0831 39.375 38.755 30.7031 38.755 20C38.755 9.29688 30.0831 0.625 19.38 0.625ZM19.38 35.625C10.7628 35.625 3.755 28.6172 3.755 20C3.755 11.3828 10.7628 4.375 19.38 4.375C27.9972 4.375 35.005 11.3828 35.005 20C35.005 28.6172 27.9972 35.625 19.38 35.625ZM13.13 18.75C14.5128 18.75 15.63 17.6328 15.63 16.25C15.63 14.8672 14.5128 13.75 13.13 13.75C11.7472 13.75 10.63 14.8672 10.63 16.25C10.63 17.6328 11.7472 18.75 13.13 18.75ZM25.63 18.75C27.0128 18.75 28.13 17.6328 28.13 16.25C28.13 14.8672 27.0128 13.75 25.63 13.75C24.2472 13.75 23.13 14.8672 23.13 16.25C23.13 17.6328 24.2472 18.75 25.63 18.75ZM25.9425 24.4219C24.3175 26.375 21.9191 27.5 19.38 27.5C16.8409 27.5 14.4425 26.3828 12.8175 24.4219C12.1534 23.625 10.9659 23.5234 10.1769 24.1797C9.38 24.8438 9.27844 26.0234 9.93469 26.8203C12.2784 29.6328 15.7238 31.2422 19.38 31.2422C23.0363 31.2422 26.4816 29.6328 28.8253 26.8203C29.4894 26.0234 29.38 24.8438 28.5831 24.1797C27.7941 23.5234 26.6066 23.625 25.9425 24.4219Z" fill="white"/>
</g>
<defs>
<clipPath id="clip0_343_56">
<rect width="38.76" height="40" fill="white"/>
</clipPath>
</defs>
</svg>
